<?xml version="1.0" encoding="utf-8"?>
<!-- Generator: Adobe Illustrator 17.0.0, SVG Export Plug-In . SVG Version: 6.00 Build 0)  -->
<!DOCTYPE svg PUBLIC "-//W3C//DTD SVG 1.1//EN" "http://www.w3.org/Graphics/SVG/1.1/DTD/svg11.dtd">
<svg version="1.1" id="ÉåÉCÉÑÅ_x5B__1" xmlns="http://www.w3.org/2000/svg" xmlns:xlink="http://www.w3.org/1999/xlink"
   x="0px" y="0px" width="122.397px" height="48.028px" viewBox="0 0 122.397 48.028" enable-background="new 0 0 122.397 48.028"
   xml:space="preserve">
<g>
  <rect x="0" y="0" fill="#222222" width="122.397" height="48.028"/>
  <path fill="#FFFFFF" d="M102.348,30.069c-0.471-0.856-0.538-1.317-0.538-1.317l-1.478-17.787c0,0,0.269,0,0.403-0.33
    c0.403-0.329,0.47-0.725,0.47-0.725s0.336-0.526,0.201-0.724c-0.134-0.197-0.604-1.121-0.872-1.383
    c-0.27-0.264-0.403-0.396-0.807-0.131c-0.403,0.263-2.15,1.12-2.687,1.185c-0.537,0.066-4.702,0.922-5.576,0.988
    c-0.873,0.065-4.299,0.461-5.038,0.856c-0.739,0.395-1.68,0.264-1.949,0.132c-0.268-0.132-0.2-1.121-0.2-1.121l0.94-2.041
    c0,0,0.672-1.253,0.402-1.978c0.27-1.054,0-2.766-0.604-3.228c-0.336-0.79-1.881-1.845-2.955-0.921L81.253,1.61
    c0,0-0.74-0.659-1.681,0.198c-0.939,0.855-0.671,1.449-0.401,1.909c-0.202,0.527-0.135,2.636,0.268,3.162
    c0,0,0.202,2.175,0.739,2.767c0.537,0.594,0.201,1.12,0.201,1.12s-1.545-0.593-3.022-0.065c-1.478,0.527-2.352,1.779-1.948,3.03
    c-0.471,1.911-0.537,3.624-0.067,5.995c0.47,2.372,1.074,5.535,0.538,6.325c-0.538,0.79-2.554,5.6-1.747,8.102h11.823
    c0,0-1.074-6.587-1.142-7.377c-0.067-0.791,0.134-2.768,0.269-2.965c0.135-0.198,1.882-2.701,1.814-4.019
    c-0.067-1.317,0.402,0,0.671,0.725c0.27,0.724,3.829,5.665,4.569,6.259c0.738,0.593,6.247,3.688,6.583,4.018
    c0.336,0.329,1.881,1.317,2.352,1.317C101.944,32.375,102.818,30.926,102.348,30.069z M98.787,28.685
    c-0.135-0.197-3.226-3.36-4.099-4.018c-0.873-0.659-1.68-1.317-1.881-1.712c-0.202-0.395-2.418-3.887-2.485-4.085
    c-0.067-0.197-1.142-5.006-2.15-5.269c0,0,3.494-0.791,4.771-1.45c1.276-0.658,4.837-1.515,4.837-1.515s1.143,0.395,1.411,0.395
    c0.336,1.318,1.477,18.644,1.477,18.644S98.922,28.883,98.787,28.685z"/>
  <path fill="#FFFFFF" d="M1.402,29.855c0,0-0.684,0.959-0.274,1.37c0.411,0.411-2.877,12.332,3.015,15.621
    c5.893,3.289,77.695-3.7,91.945-5.618c14.251-1.919,25.076-0.137,26.31-11.236c-0.548-6.989-0.959-7.947-0.959-7.947
    s0.411-1.371,0-1.371c-0.411,0-6.577,2.055-7.263,2.055c-0.685,0.274-17.402,7.399-49.74,9.729
    C32.097,34.788,33.604,34.925,1.402,29.855z"/>
  <path fill="#FFFFFF" d="M43.831,17.595c-0.049-0.346-0.149-0.842-0.348-0.991c-0.198-0.149-0.397-0.347-0.496-0.496
    c-0.099-0.149-0.297-0.595-0.645-0.497c-0.347,0.1-0.446,0-0.595,0c-0.149,0-0.644,1.242-0.892,1.638
    c-0.249,0.396-0.298,0.594-0.298,0.842c0,0.249-1.686,2.877-1.934,2.827c-0.249-0.05-0.596-1.141-0.596-1.141s0-2.528-0.248-2.925
    c-0.248-0.398-2.182-1.886-2.182-1.886s-0.694-1.934-1.885-2.232c-1.191-0.298-0.843-0.992-0.893-1.141
    c-0.049-0.149,0.446-2.083,0.446-2.083s2.083,0.05,2.282-0.396c0.199-0.447,0.05-1.438,0.149-1.687
    c0.099-0.248,0.744-0.496,0.645-0.794c-0.1-0.297-0.595-1.389-0.546-1.587c0.05-0.199,0.199-0.644,0.149-0.892
    c0,0,0.694-1.439,0-2.579c-1.488-2.232-3.521-1.438-3.521-1.438c-0.893-0.149-2.876,0.149-4.017,1.636
    c-1.142,1.488-1.042,3.224-1.042,3.224s-1.487,0.893-1.29,2.629c0.199,1.736-0.099,2.579-0.545,2.43
    c0.348,0.298,0.942-0.05,0.992-0.347c0.149,0.347-0.248,0.892,0.744,1.636c-0.099,0.397-1.636,2.083-1.488,3.224
    c-0.942,0.793-1.934,2.431-1.091,5.406c0.099,1.041,0.248,1.587,0.099,1.637c-0.149,0.05-0.149,0.645,0.05,0.893
    c0,0-0.05,1.488-0.149,1.637c-0.099,0.149-0.199,1.091,0.099,1.19c0,0,0.744,1.141,0.943,1.24c0.198,0.099,0.942,0.447,0.793,1.29
    c-0.148,0.844-1.885,4.118-0.992,6.845c0.892,2.727,13.193,2.976,14.085,2.628c0.893-0.347-1.785-3.918-1.785-4.066
    c0-0.149-0.099-0.645-0.297-0.744c-0.199-0.1-0.694-4.761-0.694-5.109c0-0.348,0.149-2.033,0.05-2.38
    c-0.1-0.347,1.19,0.694,1.685,0.744c0.496,0.049,0.993-0.298,1.042-0.645c0.05-0.348,1.438-2.333,1.637-3.77
    c0.198-1.438,1.041-2.628,1.041-2.628s0.447,0.049,0.645-0.148C43.137,18.389,43.881,17.943,43.831,17.595z M29.35,10.503
    c-0.397,0.595-0.545,0.149-0.545,0.347c0,0.199-0.844,0.297-0.844,0.297s0.595-1.735,0.297-2.281
    c-0.297-0.545-0.644-2.381-0.05-2.727c0,0,0.1,1.091,0.695,1.687c0.049,0.445-0.049,0.892-0.049,0.892l0.347-0.892
    C29.201,7.825,29.746,9.908,29.35,10.503z"/>
  <path fill="#FFFFFF" d="M34.21,13.875c0,0,1.389-1.29,1.488-1.687c0.099-0.396-0.298-2.033-0.099-2.281
    c0.198-0.248,0.347-0.793,0.396-1.24c0.05-0.446,0.396-0.645,0.497-0.347c0.099,0.297,0.198,0.644,0.198,0.644
    s0.298-0.248,0.694-0.198c0.396,0.049,0.545,0.744,0.545,0.744c0.248,0,0.248,0.198,0.248,0.397s0.297,0.199,0.297,0.595
    c0.249,0.347,0,1.289-0.248,1.637c-0.248,0.348-0.694,0.348-0.694,0.348s-1.24,3.173-1.687,3.421
    C35.4,16.157,34.21,13.875,34.21,13.875z"/>
  <path fill="#FFFFFF" d="M35.549,9.115l12.832,17.385c0,0,0,1.644,0.616,2.775c0.616,1.13,4.214,7.296,4.831,7.502
    c0.615,0.205,1.541,0.41,1.645-0.103c0.103-0.513,0.205-4.521,0.205-4.521s-3.906-4.419-4.316-5.139
    c-0.411-0.719-1.645-1.027-2.056-1.233C48.895,25.574,37.384,8.767,37.384,8.767s-0.396-0.793-0.892-0.446
    C35.996,8.667,35.549,9.115,35.549,9.115z"/>
</g>
</svg>
